<?xml version="1.0" standalone="no"?>
<!DOCTYPE svg PUBLIC "-//W3C//DTD SVG 20010904//EN"
 "http://www.w3.org/TR/2001/REC-SVG-20010904/DTD/svg10.dtd">
<svg version="1.0" xmlns="http://www.w3.org/2000/svg"
 width="129.000000pt" height="129.000000pt" viewBox="0 0 129.000000 129.000000"
 preserveAspectRatio="xMidYMid meet">

<g transform="translate(0.000000,129.000000) scale(0.100000,-0.100000)"
fill="#000000" stroke="none">
<path d="M1040 570 l0 -490 60 0 60 0 0 490 0 490 -60 0 -60 0 0 -490z"/>
<path d="M720 445 l0 -365 60 0 60 0 0 365 0 365 -60 0 -60 0 0 -365z"/>
<path d="M400 320 l0 -240 60 0 60 0 0 240 0 240 -60 0 -60 0 0 -240z"/>
<path d="M90 195 l0 -115 60 0 60 0 0 115 0 115 -60 0 -60 0 0 -115z"/>
</g>
</svg>
